<svg width="968" height="215" viewBox="0 0 968 215" fill="none" xmlns="http://www.w3.org/2000/svg">
<path d="M1011.76 28.7259C1011.76 13.2899 999.263 0.765542 983.827 0.726062L810.808 0.283537C802.065 0.261175 793.813 4.32424 788.5 11.2678L629.619 218.899C624.321 225.823 616.1 229.884 607.382 229.884H28.5957C13.1317 229.884 0.595703 242.42 0.595703 257.884V428.422C0.595703 443.886 13.1317 456.422 28.5957 456.422H983.757C999.221 456.422 1011.76 443.886 1011.76 428.422L1011.76 28.7259Z" fill="white"/>
<path d="M1011.76 28.7259C1011.76 13.2899 999.263 0.765542 983.827 0.726062L810.808 0.283537C802.065 0.261175 793.813 4.32424 788.5 11.2678L629.619 218.899C624.321 225.823 616.1 229.884 607.382 229.884H28.5957C13.1317 229.884 0.595703 242.42 0.595703 257.884V428.422C0.595703 443.886 13.1317 456.422 28.5957 456.422H983.757C999.221 456.422 1011.76 443.886 1011.76 428.422L1011.76 28.7259Z" fill="url(#paint0_linear_3385_34276)"/>
<defs>
<linearGradient id="paint0_linear_3385_34276" x1="553.6" y1="13.3845" x2="553.6" y2="456.423" gradientUnits="userSpaceOnUse">
<stop stop-color="#0059F1"/>
<stop offset="1" stop-color="#548BEB"/>
</linearGradient>
</defs>
</svg>
