<svg width="336" height="255" viewBox="0 0 336 255" fill="none" xmlns="http://www.w3.org/2000/svg">
<path d="M474.033 29.2192C474.033 13.7709 461.521 1.24144 446.073 1.21943L268.346 0.966145C262.409 0.957684 256.623 2.83642 251.824 6.33103L90.8587 123.539C86.0705 127.026 80.2999 128.904 74.3768 128.904H-509.127C-524.591 128.904 -537.127 141.44 -537.127 156.904V227.129C-537.127 242.593 -524.591 255.129 -509.127 255.129H446.034C461.498 255.129 474.034 242.593 474.034 227.129L474.033 29.2192Z" fill="white"/>
<path d="M474.033 29.2192C474.033 13.7709 461.521 1.24144 446.073 1.21943L268.346 0.966145C262.409 0.957684 256.623 2.83642 251.824 6.33103L90.8587 123.539C86.0705 127.026 80.2999 128.904 74.3768 128.904H-509.127C-524.591 128.904 -537.127 141.44 -537.127 156.904V227.129C-537.127 242.593 -524.591 255.129 -509.127 255.129H446.034C461.498 255.129 474.034 242.593 474.034 227.129L474.033 29.2192Z" fill="url(#paint0_linear_3389_34478)"/>
<defs>
<linearGradient id="paint0_linear_3389_34478" x1="15.877" y1="8.2726" x2="15.877" y2="255.129" gradientUnits="userSpaceOnUse">
<stop stop-color="#0059F1"/>
<stop offset="1" stop-color="#548BEB"/>
</linearGradient>
</defs>
</svg>
