<svg width="449" height="324" viewBox="0 0 449 324" fill="none" xmlns="http://www.w3.org/2000/svg">
<rect opacity="0.4" x="352.684" y="240.816" width="24.5623" height="82.4126" rx="2.89569" fill="url(#paint0_linear_1678_3729)"/>
<rect opacity="0.4" x="323.242" y="262.344" width="24.5623" height="60.8842" rx="2.89569" fill="url(#paint1_linear_1678_3729)"/>
<rect opacity="0.4" x="381.129" y="254.988" width="24.5623" height="68.2402" rx="2.89569" fill="url(#paint2_linear_1678_3729)"/>
<rect opacity="0.4" x="408.078" y="168.523" width="24.5623" height="154.705" rx="2.89569" fill="url(#paint3_linear_1678_3729)"/>
<g filter="url(#filter0_d_1678_3729)">
<rect x="23.5156" y="26.7363" width="231.318" height="170.89" rx="10.9768" fill="white" fill-opacity="0.2" shape-rendering="crispEdges"/>
<rect x="23.7871" y="27.0078" width="230.775" height="170.347" rx="10.7053" stroke="#D0D8D3" stroke-width="0.542881" shape-rendering="crispEdges"/>
<rect x="30.376" y="33.5967" width="216.785" height="157.169" rx="6.86048" fill="url(#paint4_linear_1678_3729)"/>
<rect x="30.6655" y="33.8862" width="216.206" height="156.59" rx="6.57091" stroke="black" stroke-opacity="0.08" stroke-width="0.579139"/>
<rect opacity="0.2" x="51.4365" y="144.575" width="14.7471" height="26.5523" rx="2.89569" fill="url(#paint5_linear_1678_3729)"/>
<rect x="51.4365" y="116.427" width="14.7471" height="26.5523" rx="2.31656" fill="url(#paint6_linear_1678_3729)"/>
<rect opacity="0.2" x="67.3467" y="161.065" width="14.7471" height="10.0603" rx="2.89569" fill="url(#paint7_linear_1678_3729)"/>
<rect x="67.3467" y="133.712" width="14.7471" height="26.8236" rx="2.31656" fill="url(#paint8_linear_1678_3729)"/>
<rect opacity="0.2" x="83.249" y="158.876" width="14.7471" height="12.2479" rx="2.89569" fill="url(#paint9_linear_1678_3729)"/>
<rect x="83.249" y="118.165" width="14.7471" height="39.7355" rx="2.31656" fill="url(#paint10_linear_1678_3729)"/>
<rect opacity="0.4" x="99.1553" y="136.823" width="14.7471" height="34.5549" rx="2.89569" fill="url(#paint11_linear_1678_3729)"/>
<rect x="99.1553" y="101.095" width="14.7471" height="34.7913" rx="2.31656" fill="url(#paint12_linear_1678_3729)"/>
<rect opacity="0.4" x="115.062" y="151.237" width="14.7471" height="20.1353" rx="2.89569" fill="url(#paint13_linear_1678_3729)"/>
<rect x="115.062" y="107.464" width="14.7471" height="42.9173" rx="2.31656" fill="url(#paint14_linear_1678_3729)"/>
<rect opacity="0.4" x="130.968" y="111.196" width="14.7471" height="60.1727" rx="2.89569" fill="url(#paint15_linear_1678_3729)"/>
<rect x="130.968" y="81.9814" width="14.7471" height="28.2715" rx="2.31656" fill="url(#paint16_linear_1678_3729)"/>
<rect x="146.872" y="88.3467" width="14.7471" height="83.0272" rx="2.89569" fill="url(#paint17_linear_1678_3729)"/>
<rect x="146.872" y="50.6416" width="14.7471" height="36.7097" rx="2.31656" fill="url(#paint18_linear_1678_3729)"/>
<rect opacity="0.4" x="162.776" y="106.499" width="14.7471" height="64.8703" rx="2.89569" fill="url(#paint19_linear_1678_3729)"/>
<rect x="162.776" y="85.5459" width="14.7471" height="20.0674" rx="2.31656" fill="url(#paint20_linear_1678_3729)"/>
<rect opacity="0.4" x="178.685" y="120.72" width="14.7471" height="50.6509" rx="2.89569" fill="url(#paint21_linear_1678_3729)"/>
<rect x="178.685" y="91.6611" width="14.7471" height="27.6629" rx="2.31656" fill="url(#paint22_linear_1678_3729)"/>
<rect opacity="0.2" x="194.589" y="111.452" width="14.7471" height="59.9194" rx="2.89569" fill="url(#paint23_linear_1678_3729)"/>
<rect x="194.589" y="97.1533" width="14.7471" height="13.1256" rx="2.31656" fill="url(#paint24_linear_1678_3729)"/>
<rect opacity="0.2" x="210.495" y="116.021" width="14.7471" height="55.3485" rx="2.89569" fill="url(#paint25_linear_1678_3729)"/>
<rect x="210.495" y="83.0029" width="14.7471" height="31.3662" rx="2.31656" fill="url(#paint26_linear_1678_3729)"/>
<path d="M45.5721 88.0375H41.8507C41.211 88.0375 40.6924 87.5189 40.6924 86.8792V81.7569C40.6924 81.1172 41.211 80.5986 41.8507 80.5986H45.5376C45.8826 80.5986 46.2096 80.7524 46.4296 81.0181L49.3161 84.5031L46.4266 87.6611C46.2072 87.9009 45.8971 88.0375 45.5721 88.0375Z" stroke="#1550E5" stroke-width="0.686048"/>
<path d="M49.0889 84.4756H234.498" stroke="url(#paint27_linear_1678_3729)" stroke-width="0.686048"/>
<path d="M68.2412 85.3252L68.2412 176.871" stroke="url(#paint28_linear_1678_3729)" stroke-width="0.686048" stroke-dasharray="1.37 1.37"/>
<g filter="url(#filter1_d_1678_3729)">
<rect x="41.2588" y="43.6533" width="68.1841" height="26.6191" rx="4.95273" fill="white" fill-opacity="0.2" shape-rendering="crispEdges"/>
<rect x="41.4492" y="43.8437" width="67.8033" height="26.2383" rx="4.76232" stroke="#D0D8D3" stroke-width="0.380832" shape-rendering="crispEdges"/>
<path d="M48.2111 52.8327C47.6565 52.8327 47.1909 52.6444 46.8194 52.2729C46.448 51.9015 46.2649 51.4359 46.2649 50.8761C46.2649 50.3163 46.448 49.8559 46.8194 49.4844C47.1909 49.1077 47.6513 48.9194 48.2111 48.9194C48.7761 48.9194 49.2365 49.1234 49.587 49.5315L49.2417 49.8663C48.9749 49.542 48.6296 49.3798 48.2111 49.3798C47.7978 49.3798 47.4472 49.521 47.17 49.7983C46.8927 50.0756 46.7566 50.4314 46.7566 50.8761C46.7566 51.3208 46.8927 51.6765 47.17 51.9538C47.4472 52.2311 47.7978 52.3723 48.2111 52.3723C48.6453 52.3723 49.0272 52.1892 49.3464 51.823L49.6969 52.1631C49.3411 52.5868 48.8023 52.8327 48.2111 52.8327ZM50.7407 51.0592V52.749H50.2594V49.0031H50.7407V50.6092H52.6137V49.0031H53.095V52.749H52.6137V51.0592H50.7407ZM55.1487 52.8327C54.7354 52.8327 54.4005 52.6967 54.1442 52.4247C53.8878 52.1578 53.7623 51.8021 53.7623 51.3574V49.0031H54.2436V51.3783C54.2436 51.9904 54.5837 52.3723 55.1487 52.3723C55.7137 52.3723 56.0538 51.9904 56.0538 51.3783V49.0031H56.5351V51.3574C56.5351 51.8125 56.4095 52.1683 56.1584 52.4351C55.9073 52.7019 55.5725 52.8327 55.1487 52.8327ZM59.8709 49.0031L58.6309 51.0069V52.749H58.1496V51.0069L56.8888 49.0031H57.4538L58.3798 50.5255H58.4007L59.3058 49.0031H59.8709ZM61.3972 48.3701L61.0885 48.6944H60.6229L61.1879 48.0352H61.6065L62.1715 48.6944H61.7059L61.3972 48.3701ZM60.309 49.0031H62.4959V49.4635H60.7903V50.6511H62.3285V51.101H60.7903V52.2886H62.4959V52.749H60.309V49.0031ZM62.3494 48.2131H61.9884C61.9884 48.1503 62.0041 48.0823 62.0407 48.0352C62.1087 47.9358 62.2918 47.894 62.2918 47.7841C62.2918 47.737 62.2448 47.7056 62.1506 47.7056C62.1087 47.7056 62.0303 47.6952 61.9622 47.7998L61.6536 47.7056C61.753 47.5121 61.9256 47.4283 62.182 47.4283C62.5116 47.4283 62.6842 47.5591 62.6842 47.7579C62.6842 47.9149 62.5848 47.9934 62.5011 48.0405C62.4436 48.0875 62.3599 48.1242 62.3494 48.2131ZM63.6259 50.4157V52.749H63.1446V49.0031H63.7305L65.5512 51.9172H65.5721L65.5512 51.1952V49.0031H66.0325V52.749H65.5303L63.6259 49.6937H63.605L63.6259 50.4157ZM69.0827 52.749H67.9369V51.1272H67.5759V50.7139H67.9369V49.0031H69.0827C69.6529 49.0031 70.1133 49.1757 70.4586 49.521C70.8092 49.8663 70.9818 50.3163 70.9818 50.8761C70.9818 51.4359 70.8092 51.891 70.4586 52.2363C70.1133 52.5764 69.6529 52.749 69.0827 52.749ZM69.2501 50.7139V51.1272H68.4183V52.2886H69.0827C69.5169 52.2886 69.8622 52.1631 70.1133 51.9172C70.3645 51.6661 70.49 51.3208 70.49 50.8761C70.49 50.4366 70.3645 50.0913 70.1133 49.8402C69.8622 49.5891 69.5169 49.4635 69.0827 49.4635H68.4183V50.7139H69.2501ZM73.2964 48.3701L72.9877 48.6944H72.5221L73.0871 48.0352H73.5056L74.0707 48.6944H73.605L73.2964 48.3701ZM75.2216 50.8761C75.2216 51.4306 75.0385 51.8963 74.6671 52.2677C74.2956 52.6444 73.8352 52.8327 73.2964 52.8327C72.7523 52.8327 72.2971 52.6444 71.9256 52.2677C71.5542 51.8963 71.3711 51.4306 71.3711 50.8761C71.3711 50.3215 71.5542 49.8559 71.9256 49.4844C72.2971 49.1077 72.7523 48.9194 73.2964 48.9194C73.8405 48.9194 74.2956 49.1077 74.6671 49.4897C75.0385 49.8611 75.2216 50.3267 75.2216 50.8761ZM71.8629 50.8761C71.8629 51.3103 71.9989 51.6661 72.2709 51.9486C72.5482 52.2311 72.8883 52.3723 73.2964 52.3723C73.7044 52.3723 74.0445 52.2311 74.3165 51.9486C74.5938 51.6713 74.7299 51.3103 74.7299 50.8761C74.7299 50.4418 74.5938 50.0808 74.3165 49.8036C74.0445 49.521 73.7044 49.3798 73.2964 49.3798C72.8883 49.3798 72.5482 49.521 72.2709 49.8036C71.9989 50.0861 71.8629 50.4418 71.8629 50.8761ZM74.2485 48.2131H73.8875C73.8875 48.1503 73.9032 48.0823 73.9399 48.0352C74.0079 47.9358 74.191 47.894 74.191 47.7841C74.191 47.737 74.1439 47.7056 74.0497 47.7056C74.0079 47.7056 73.9294 47.6952 73.8614 47.7998L73.5527 47.7056C73.6521 47.5121 73.8248 47.4283 74.0811 47.4283C74.4107 47.4283 74.5834 47.5591 74.5834 47.7579C74.5834 47.9149 74.484 47.9934 74.4003 48.0405C74.3427 48.0875 74.259 48.1242 74.2485 48.2131ZM76.271 49.0031V52.749H75.7896V49.0031H76.271Z" fill="#CACACA"/>
<path d="M51.492 65.4548C49.8166 65.4548 48.6654 64.4291 48.6654 63.107C48.6654 62.1838 49.2239 61.5341 49.8622 61.2036V61.1124C49.3607 60.7819 48.9276 60.2234 48.9276 59.494C48.9276 58.2403 50.0103 57.2943 51.492 57.2943C52.9737 57.2943 54.0564 58.2403 54.0564 59.494C54.0564 60.2234 53.6233 60.7819 53.1218 61.1124V61.2036C53.7601 61.5341 54.3186 62.1838 54.3186 63.107C54.3186 64.4291 53.1674 65.4548 51.492 65.4548ZM51.492 60.5539C52.1303 60.5539 52.6089 60.1664 52.6089 59.5852C52.6089 58.9925 52.1303 58.6278 51.492 58.6278C50.8537 58.6278 50.3751 58.9925 50.3751 59.5852C50.3751 60.1664 50.8537 60.5539 51.492 60.5539ZM51.492 64.0757C52.267 64.0757 52.8255 63.6426 52.8255 62.9588C52.8255 62.3205 52.2556 61.8646 51.492 61.8646C50.7284 61.8646 50.1585 62.3205 50.1585 62.9588C50.1585 63.6426 50.717 64.0757 51.492 64.0757ZM60.3155 65.2725H58.8339V63.8364H55.2323V62.6283L58.6971 57.4766H60.3155V62.4459H61.2957V63.8364H60.3155V65.2725ZM58.8339 62.4459V59.6991H58.7427L56.8849 62.4459H58.8339ZM62.9735 66.7313L62.3011 66.2868L62.9735 65.2497C62.643 65.1243 62.3695 64.7938 62.3695 64.3493C62.3695 63.8022 62.814 63.3691 63.3611 63.3691C63.9081 63.3691 64.3412 63.8022 64.3412 64.3493C64.3412 64.6342 64.25 64.828 64.0563 65.1129L62.9735 66.7313ZM70.6039 65.2725H65.4181V63.9162C65.8626 63.4717 66.2843 63.0614 66.6604 62.6853C67.3101 62.0356 68.0281 61.329 68.2675 61.0554C68.7575 60.4742 68.9969 60.1778 68.9969 59.6421C68.9969 59.1407 68.5752 58.7076 67.8913 58.7076C67.2075 58.7076 66.8428 59.1635 66.706 59.6535L65.3497 59.0951C65.6005 58.2631 66.4439 57.2943 67.9141 57.2943C69.4984 57.2943 70.4899 58.2973 70.4899 59.5738C70.4899 60.5425 69.9429 61.3518 69.259 62.047L68.2789 63.0272C68.0167 63.2893 67.7318 63.5742 67.4013 63.8934L67.4468 63.9618H70.6039V65.2725ZM76.6436 65.2725H75.162V63.8364H71.5604V62.6283L75.0252 57.4766H76.6436V62.4459H77.6238V63.8364H76.6436V65.2725ZM75.162 62.4459V59.6991H75.0708L73.213 62.4459H75.162ZM83.8378 65.2725H78.652V63.9162C79.0965 63.4717 79.5182 63.0614 79.8943 62.6853C80.544 62.0356 81.262 61.329 81.5013 61.0554C81.9914 60.4742 82.2308 60.1778 82.2308 59.6421C82.2308 59.1407 81.8091 58.7076 81.1252 58.7076C80.4414 58.7076 80.0767 59.1635 79.9399 59.6535L78.5836 59.0951C78.8344 58.2631 79.6778 57.2943 81.148 57.2943C82.7323 57.2943 83.7238 58.2973 83.7238 59.5738C83.7238 60.5425 83.1768 61.3518 82.4929 62.047L81.5127 63.0272C81.2506 63.2893 80.9657 63.5742 80.6351 63.8934L80.6807 63.9618H83.8378V65.2725ZM85.8771 65.3408C85.33 65.3408 84.8855 64.8963 84.8855 64.3493C84.8855 63.8022 85.33 63.3691 85.8771 63.3691C86.4241 63.3691 86.8572 63.8022 86.8572 64.3493C86.8572 64.8963 86.4241 65.3408 85.8771 65.3408ZM91.1718 65.4548C89.1658 65.4548 87.9007 63.6882 87.9007 61.3746C87.9007 59.0609 89.1658 57.2943 91.1718 57.2943C93.1777 57.2943 94.4428 59.0609 94.4428 61.3746C94.4428 63.6882 93.1777 65.4548 91.1718 65.4548ZM91.1718 64.0415C92.2773 64.0415 92.9498 62.9018 92.9498 61.3746C92.9498 59.8359 92.2773 58.7076 91.1718 58.7076C90.0434 58.7076 89.3938 59.8359 89.3938 61.3746C89.3938 62.9018 90.0434 64.0415 91.1718 64.0415ZM98.7181 65.4548C96.7121 65.4548 95.447 63.6882 95.447 61.3746C95.447 59.0609 96.7121 57.2943 98.7181 57.2943C100.724 57.2943 101.989 59.0609 101.989 61.3746C101.989 63.6882 100.724 65.4548 98.7181 65.4548ZM98.7181 64.0415C99.8236 64.0415 100.496 62.9018 100.496 61.3746C100.496 59.8359 99.8236 58.7076 98.7181 58.7076C97.5897 58.7076 96.9401 59.8359 96.9401 61.3746C96.9401 62.9018 97.5897 64.0415 98.7181 64.0415Z" fill="#301F6B"/>
</g>
<circle cx="68.2002" cy="84.4288" r="2.95708" fill="#1651E5"/>
</g>
<path d="M377.902 108.386C377.902 104.031 381.433 100.5 385.788 100.5H400.521C406.767 100.5 411.83 105.563 411.83 111.809V116.272H385.788C381.433 116.272 377.902 112.741 377.902 108.386V108.386Z" fill="#363636"/>
<path d="M419.595 100.246C434.279 100.246 446.183 112.151 446.183 126.835C446.182 141.519 434.279 153.423 419.595 153.423C404.91 153.423 393.006 141.519 393.006 126.835C393.006 123.581 393.592 120.464 394.661 117.583H413.511V112.632C413.511 108.555 411.564 104.934 408.552 102.642C411.915 101.104 415.655 100.246 419.595 100.246Z" fill="#6EFF00"/>
<path fill-rule="evenodd" clip-rule="evenodd" d="M429.027 121.434C429.493 121.434 429.871 121.811 429.871 122.277L429.871 129.866C429.871 130.332 429.494 130.709 429.028 130.709C428.562 130.709 428.185 130.332 428.185 129.866L428.184 124.313L422.027 130.47C421.369 131.129 420.301 131.129 419.642 130.47L415.335 126.164L409.339 132.16L408.146 130.968L414.143 124.971C414.802 124.313 415.869 124.313 416.528 124.971L420.835 129.278L426.992 123.12L421.438 123.12C420.973 123.12 420.595 122.743 420.595 122.277C420.595 121.812 420.972 121.434 421.438 121.434L429.027 121.434Z" fill="#363636"/>
<path d="M388.046 112.422C386.714 112.422 385.798 111.607 385.798 110.555C385.798 109.821 386.242 109.304 386.75 109.041V108.969C386.351 108.706 386.007 108.262 386.007 107.682C386.007 106.685 386.868 105.932 388.046 105.932C389.224 105.932 390.086 106.685 390.086 107.682C390.086 108.262 389.741 108.706 389.342 108.969V109.041C389.85 109.304 390.294 109.821 390.294 110.555C390.294 111.607 389.379 112.422 388.046 112.422ZM388.046 108.525C388.554 108.525 388.934 108.217 388.934 107.754C388.934 107.283 388.554 106.993 388.046 106.993C387.538 106.993 387.158 107.283 387.158 107.754C387.158 108.217 387.538 108.525 388.046 108.525ZM388.046 111.326C388.662 111.326 389.107 110.981 389.107 110.437C389.107 109.93 388.653 109.567 388.046 109.567C387.439 109.567 386.986 109.93 386.986 110.437C386.986 110.981 387.43 111.326 388.046 111.326ZM393.658 112.422C392.063 112.422 391.057 111.017 391.057 109.177C391.057 107.337 392.063 105.932 393.658 105.932C395.254 105.932 396.26 107.337 396.26 109.177C396.26 111.017 395.254 112.422 393.658 112.422ZM393.658 111.298C394.538 111.298 395.073 110.392 395.073 109.177C395.073 107.954 394.538 107.056 393.658 107.056C392.761 107.056 392.244 107.954 392.244 109.177C392.244 110.392 392.761 111.298 393.658 111.298ZM396.95 107.482C396.95 106.639 397.639 105.932 398.545 105.932C399.461 105.932 400.15 106.639 400.15 107.482C400.15 108.334 399.461 109.032 398.545 109.032C397.639 109.032 396.95 108.334 396.95 107.482ZM397.92 107.482C397.92 107.881 398.192 108.144 398.545 108.144C398.899 108.144 399.171 107.881 399.171 107.482C399.171 107.083 398.899 106.821 398.545 106.821C398.192 106.821 397.92 107.083 397.92 107.482ZM398.817 112.422L398.101 111.942L402.126 105.932L402.842 106.413L398.817 112.422ZM400.793 110.872C400.793 110.029 401.482 109.322 402.388 109.322C403.304 109.322 403.993 110.029 403.993 110.872C403.993 111.724 403.304 112.422 402.388 112.422C401.482 112.422 400.793 111.724 400.793 110.872ZM401.763 110.872C401.763 111.271 402.035 111.534 402.388 111.534C402.742 111.534 403.014 111.271 403.014 110.872C403.014 110.474 402.742 110.211 402.388 110.211C402.035 110.211 401.763 110.474 401.763 110.872Z" fill="white"/>
<g filter="url(#filter2_d_1678_3729)">
<rect x="307.648" y="142.561" width="115.198" height="82.284" rx="5.25343" fill="url(#paint29_linear_1678_3729)" shape-rendering="crispEdges"/>
<rect x="305.667" y="140.579" width="119.161" height="86.2471" rx="7.23496" stroke="white" stroke-opacity="0.88" stroke-width="3.96306" shape-rendering="crispEdges"/>
<path d="M332.664 167.629L422.121 167.629" stroke="url(#paint30_linear_1678_3729)" stroke-width="0.422231"/>
<path d="M332.664 185.916L422.121 185.916" stroke="url(#paint31_linear_1678_3729)" stroke-width="0.422231"/>
<path d="M332.664 207.402L422.121 207.402" stroke="url(#paint32_linear_1678_3729)" stroke-width="0.422231"/>
<path d="M332.664 190.659C336.181 190.244 344.881 188.31 351.541 183.889C359.867 178.362 359.867 190.995 368.075 190.995C376.283 190.995 376.165 187.158 378.511 187.045C380.856 186.932 380.973 185.804 388.36 178.923C395.748 172.042 392.933 182.305 398.093 182.305C403.252 182.305 406.535 176.777 408.881 177.454C411.226 178.13 411.226 186.929 414.861 186.929" stroke="#6EFF00" stroke-width="0.723458" stroke-linecap="round" stroke-linejoin="round"/>
<path d="M332.664 212.239C336.181 212.01 342.166 204.655 348.826 202.212C357.152 199.157 359.867 212.425 368.075 212.425C376.283 212.425 376.354 199.233 378.699 199.17C381.044 199.108 380.973 209.556 388.36 205.753C395.748 201.951 392.77 215.591 397.929 215.591C403.089 215.591 406.535 204.567 408.881 204.941C411.226 205.315 411.226 210.178 414.861 210.178" stroke="#BFFF00" stroke-width="0.723458" stroke-linecap="round" stroke-linejoin="round"/>
<path d="M333.268 183.026C332.942 181.21 333.032 177.427 336.002 176.825C339.714 176.073 344.014 164.983 346.749 162.728C349.485 160.472 351.243 165.171 354.956 167.803C358.668 170.434 361.599 167.051 362.966 166.863C364.334 166.675 365.116 170.622 369.023 170.622C372.931 170.622 373.322 165.923 375.276 165.547C377.23 165.172 387.194 150.135 395.596 150.135C403.997 150.135 402.239 171 406.733 170.625C411.227 170.249 411.031 153.332 415.721 153.332" stroke="#1550E5" stroke-width="0.723458" stroke-linecap="round" stroke-linejoin="round"/>
<circle cx="316.963" cy="151.994" r="3.18916" fill="#1550E5"/>
<circle cx="324.516" cy="151.994" r="3.18916" fill="#6EFF00"/>
<circle cx="332.07" cy="151.994" r="3.18916" fill="#BFFF00"/>
<rect x="313.715" y="164.652" width="15.4865" height="5.78858" rx="2.89429" fill="#F2F2F2"/>
<rect x="313.715" y="182.572" width="15.4865" height="5.78858" rx="2.89429" fill="#F2F2F2"/>
<rect x="313.715" y="204.059" width="15.4865" height="5.78858" rx="2.89429" fill="#F2F2F2"/>
<circle cx="381.079" cy="159.671" r="1.7825" fill="#1550E5"/>
<circle cx="396.388" cy="181.517" r="1.7825" fill="#6EFF00"/>
<circle cx="371.06" cy="211.279" r="1.7825" fill="#BFFF00"/>
</g>
<defs>
<filter id="filter0_d_1678_3729" x="8.48224" y="11.7029" width="261.385" height="201.036" filterUnits="userSpaceOnUse" color-interpolation-filters="sRGB">
<feFlood flood-opacity="0" result="BackgroundImageFix"/>
<feColorMatrix in="SourceAlpha" type="matrix" values="0 0 0 0 0 0 0 0 0 0 0 0 0 0 0 0 0 0 127 0" result="hardAlpha"/>
<feOffset dy="2.62592"/>
<feGaussianBlur stdDeviation="6.24304"/>
<feComposite in2="hardAlpha" operator="out"/>
<feColorMatrix type="matrix" values="0 0 0 0 0 0 0 0 0 0 0 0 0 0 0 0 0 0 0.05 0"/>
<feBlend mode="normal" in2="BackgroundImageFix" result="effect1_dropShadow_1678_3729"/>
<feBlend mode="normal" in="SourceGraphic" in2="effect1_dropShadow_1678_3729" result="shape"/>
</filter>
<filter id="filter1_d_1678_3729" x="30.7128" y="33.1074" width="89.2765" height="47.7662" filterUnits="userSpaceOnUse" color-interpolation-filters="sRGB">
<feFlood flood-opacity="0" result="BackgroundImageFix"/>
<feColorMatrix in="SourceAlpha" type="matrix" values="0 0 0 0 0 0 0 0 0 0 0 0 0 0 0 0 0 0 127 0" result="hardAlpha"/>
<feOffset dy="1.84209"/>
<feGaussianBlur stdDeviation="4.3795"/>
<feComposite in2="hardAlpha" operator="out"/>
<feColorMatrix type="matrix" values="0 0 0 0 0 0 0 0 0 0 0 0 0 0 0 0 0 0 0.05 0"/>
<feBlend mode="normal" in2="BackgroundImageFix" result="effect1_dropShadow_1678_3729"/>
<feBlend mode="normal" in="SourceGraphic" in2="effect1_dropShadow_1678_3729" result="shape"/>
</filter>
<filter id="filter2_d_1678_3729" x="287.386" y="126.298" width="155.724" height="122.81" filterUnits="userSpaceOnUse" color-interpolation-filters="sRGB">
<feFlood flood-opacity="0" result="BackgroundImageFix"/>
<feColorMatrix in="SourceAlpha" type="matrix" values="0 0 0 0 0 0 0 0 0 0 0 0 0 0 0 0 0 0 127 0" result="hardAlpha"/>
<feOffset dy="4"/>
<feGaussianBlur stdDeviation="8.15"/>
<feComposite in2="hardAlpha" operator="out"/>
<feColorMatrix type="matrix" values="0 0 0 0 0 0 0 0 0 0 0 0 0 0 0 0 0 0 0.1 0"/>
<feBlend mode="normal" in2="BackgroundImageFix" result="effect1_dropShadow_1678_3729"/>
<feBlend mode="normal" in="SourceGraphic" in2="effect1_dropShadow_1678_3729" result="shape"/>
</filter>
<linearGradient id="paint0_linear_1678_3729" x1="364.965" y1="240.816" x2="364.965" y2="323.229" gradientUnits="userSpaceOnUse">
<stop stop-color="#1550E5"/>
<stop offset="1" stop-color="#1550E5" stop-opacity="0"/>
</linearGradient>
<linearGradient id="paint1_linear_1678_3729" x1="335.523" y1="262.344" x2="335.523" y2="323.228" gradientUnits="userSpaceOnUse">
<stop stop-color="#1550E5"/>
<stop offset="1" stop-color="#1550E5" stop-opacity="0"/>
</linearGradient>
<linearGradient id="paint2_linear_1678_3729" x1="393.41" y1="254.988" x2="393.41" y2="323.228" gradientUnits="userSpaceOnUse">
<stop stop-color="#1550E5"/>
<stop offset="1" stop-color="#1550E5" stop-opacity="0"/>
</linearGradient>
<linearGradient id="paint3_linear_1678_3729" x1="420.359" y1="168.523" x2="420.359" y2="323.228" gradientUnits="userSpaceOnUse">
<stop stop-color="#1550E5"/>
<stop offset="1" stop-color="#1550E5" stop-opacity="0"/>
</linearGradient>
<linearGradient id="paint4_linear_1678_3729" x1="138.769" y1="33.5967" x2="138.769" y2="190.766" gradientUnits="userSpaceOnUse">
<stop stop-color="white"/>
<stop offset="1" stop-color="#F9F9F9"/>
</linearGradient>
<linearGradient id="paint5_linear_1678_3729" x1="58.8101" y1="-17.7384" x2="58.8101" y2="171.127" gradientUnits="userSpaceOnUse">
<stop stop-color="#1550E5"/>
<stop offset="1" stop-color="#1550E5" stop-opacity="0"/>
</linearGradient>
<linearGradient id="paint6_linear_1678_3729" x1="58.8101" y1="116.427" x2="58.8101" y2="142.979" gradientUnits="userSpaceOnUse">
<stop stop-color="white"/>
<stop offset="1" stop-color="#F4F4F4"/>
</linearGradient>
<linearGradient id="paint7_linear_1678_3729" x1="74.7202" y1="99.5672" x2="74.7202" y2="171.126" gradientUnits="userSpaceOnUse">
<stop stop-color="#1550E5"/>
<stop offset="1" stop-color="#1550E5" stop-opacity="0"/>
</linearGradient>
<linearGradient id="paint8_linear_1678_3729" x1="74.7202" y1="133.712" x2="74.7202" y2="160.536" gradientUnits="userSpaceOnUse">
<stop stop-color="white"/>
<stop offset="1" stop-color="#F4F4F4"/>
</linearGradient>
<linearGradient id="paint9_linear_1678_3729" x1="90.6226" y1="122.244" x2="90.6226" y2="171.124" gradientUnits="userSpaceOnUse">
<stop stop-color="#1550E5"/>
<stop offset="1" stop-color="#1550E5" stop-opacity="0"/>
</linearGradient>
<linearGradient id="paint10_linear_1678_3729" x1="90.6226" y1="118.165" x2="90.6226" y2="157.901" gradientUnits="userSpaceOnUse">
<stop stop-color="white"/>
<stop offset="1" stop-color="#F4F4F4"/>
</linearGradient>
<linearGradient id="paint11_linear_1678_3729" x1="106.529" y1="99.3149" x2="106.529" y2="171.378" gradientUnits="userSpaceOnUse">
<stop stop-color="#1550E5"/>
<stop offset="1" stop-color="#1550E5" stop-opacity="0"/>
</linearGradient>
<linearGradient id="paint12_linear_1678_3729" x1="106.529" y1="101.095" x2="106.529" y2="135.886" gradientUnits="userSpaceOnUse">
<stop stop-color="white"/>
<stop offset="1" stop-color="#F4F4F4"/>
</linearGradient>
<linearGradient id="paint13_linear_1678_3729" x1="122.435" y1="96.7612" x2="122.435" y2="171.373" gradientUnits="userSpaceOnUse">
<stop stop-color="#1550E5"/>
<stop offset="1" stop-color="#1550E5" stop-opacity="0"/>
</linearGradient>
<linearGradient id="paint14_linear_1678_3729" x1="122.435" y1="107.464" x2="122.435" y2="150.381" gradientUnits="userSpaceOnUse">
<stop stop-color="white"/>
<stop offset="1" stop-color="#F4F4F4"/>
</linearGradient>
<linearGradient id="paint15_linear_1678_3729" x1="138.341" y1="111.196" x2="138.341" y2="171.369" gradientUnits="userSpaceOnUse">
<stop stop-color="#1550E5"/>
<stop offset="1" stop-color="#1550E5" stop-opacity="0"/>
</linearGradient>
<linearGradient id="paint16_linear_1678_3729" x1="138.341" y1="81.9814" x2="138.341" y2="110.253" gradientUnits="userSpaceOnUse">
<stop stop-color="white"/>
<stop offset="1" stop-color="#F4F4F4"/>
</linearGradient>
<linearGradient id="paint17_linear_1678_3729" x1="154.246" y1="88.3467" x2="154.246" y2="171.374" gradientUnits="userSpaceOnUse">
<stop stop-color="#1550E5"/>
<stop offset="1" stop-color="#1550E5" stop-opacity="0"/>
</linearGradient>
<linearGradient id="paint18_linear_1678_3729" x1="154.246" y1="50.6416" x2="154.246" y2="87.3513" gradientUnits="userSpaceOnUse">
<stop stop-color="white"/>
<stop offset="1" stop-color="#F4F4F4"/>
</linearGradient>
<linearGradient id="paint19_linear_1678_3729" x1="170.15" y1="106.499" x2="170.15" y2="171.369" gradientUnits="userSpaceOnUse">
<stop stop-color="#1550E5"/>
<stop offset="1" stop-color="#1550E5" stop-opacity="0"/>
</linearGradient>
<linearGradient id="paint20_linear_1678_3729" x1="170.15" y1="85.5459" x2="170.15" y2="105.613" gradientUnits="userSpaceOnUse">
<stop stop-color="white"/>
<stop offset="1" stop-color="#F4F4F4"/>
</linearGradient>
<linearGradient id="paint21_linear_1678_3729" x1="186.058" y1="120.72" x2="186.058" y2="171.371" gradientUnits="userSpaceOnUse">
<stop stop-color="#1550E5"/>
<stop offset="1" stop-color="#1550E5" stop-opacity="0"/>
</linearGradient>
<linearGradient id="paint22_linear_1678_3729" x1="186.058" y1="91.6611" x2="186.058" y2="119.324" gradientUnits="userSpaceOnUse">
<stop stop-color="white"/>
<stop offset="1" stop-color="#F4F4F4"/>
</linearGradient>
<linearGradient id="paint23_linear_1678_3729" x1="201.962" y1="111.452" x2="201.962" y2="171.372" gradientUnits="userSpaceOnUse">
<stop stop-color="#1550E5"/>
<stop offset="1" stop-color="#1550E5" stop-opacity="0"/>
</linearGradient>
<linearGradient id="paint24_linear_1678_3729" x1="201.962" y1="97.1533" x2="201.962" y2="110.279" gradientUnits="userSpaceOnUse">
<stop stop-color="white"/>
<stop offset="1" stop-color="#F4F4F4"/>
</linearGradient>
<linearGradient id="paint25_linear_1678_3729" x1="217.869" y1="116.021" x2="217.869" y2="171.369" gradientUnits="userSpaceOnUse">
<stop stop-color="#1550E5"/>
<stop offset="1" stop-color="#1550E5" stop-opacity="0"/>
</linearGradient>
<linearGradient id="paint26_linear_1678_3729" x1="217.869" y1="83.0029" x2="217.869" y2="114.369" gradientUnits="userSpaceOnUse">
<stop stop-color="white"/>
<stop offset="1" stop-color="#F4F4F4"/>
</linearGradient>
<linearGradient id="paint27_linear_1678_3729" x1="108.382" y1="84.9756" x2="234.498" y2="84.9756" gradientUnits="userSpaceOnUse">
<stop stop-color="#1550E5"/>
<stop offset="1" stop-color="white" stop-opacity="0"/>
</linearGradient>
<linearGradient id="paint28_linear_1678_3729" x1="67.7412" y1="114.601" x2="67.7412" y2="176.871" gradientUnits="userSpaceOnUse">
<stop stop-color="#1550E5"/>
<stop offset="1" stop-color="white" stop-opacity="0"/>
</linearGradient>
<linearGradient id="paint29_linear_1678_3729" x1="365.247" y1="142.561" x2="365.247" y2="224.845" gradientUnits="userSpaceOnUse">
<stop stop-color="white"/>
<stop offset="1" stop-color="#F9F9F9"/>
</linearGradient>
<linearGradient id="paint30_linear_1678_3729" x1="361.272" y1="168.129" x2="422.121" y2="168.129" gradientUnits="userSpaceOnUse">
<stop stop-color="#DFDFDF"/>
<stop offset="1" stop-color="white" stop-opacity="0"/>
</linearGradient>
<linearGradient id="paint31_linear_1678_3729" x1="361.272" y1="186.416" x2="422.121" y2="186.416" gradientUnits="userSpaceOnUse">
<stop stop-color="#DFDFDF"/>
<stop offset="1" stop-color="white" stop-opacity="0"/>
</linearGradient>
<linearGradient id="paint32_linear_1678_3729" x1="361.272" y1="207.902" x2="422.121" y2="207.902" gradientUnits="userSpaceOnUse">
<stop stop-color="#DFDFDF"/>
<stop offset="1" stop-color="white" stop-opacity="0"/>
</linearGradient>
</defs>
</svg>
