<svg width="510" height="377" viewBox="0 0 510 377" fill="none" xmlns="http://www.w3.org/2000/svg">
<g filter="url(#filter0_d_1668_10889)">
<rect x="22.5156" y="41.3184" width="231.318" height="143.721" rx="10.9768" fill="white" fill-opacity="0.2" shape-rendering="crispEdges"/>
<rect x="22.7871" y="41.5898" width="230.775" height="143.178" rx="10.7053" stroke="#D0D8D3" stroke-width="0.542881" shape-rendering="crispEdges"/>
<rect x="29.376" y="48.1787" width="217" height="130" rx="6.86048" fill="url(#paint0_linear_1668_10889)"/>
<rect x="29.6655" y="48.4683" width="216.421" height="129.421" rx="6.57091" stroke="black" stroke-opacity="0.08" stroke-width="0.579139"/>
<rect x="47.0137" y="58.8271" width="70.8623" height="8.26367" rx="4.13184" fill="#F4F4F4"/>
<rect x="47.0137" y="72.0908" width="185.963" height="33.0879" rx="6.86048" fill="url(#paint1_linear_1668_10889)"/>
<rect x="47.3032" y="72.3804" width="185.384" height="32.5088" rx="6.57091" stroke="black" stroke-opacity="0.08" stroke-width="0.579139"/>
<rect x="98.7344" y="85.1885" width="70.8623" height="8.26367" rx="4.13184" fill="#1550E5"/>
<rect x="47.0137" y="117.179" width="70.8623" height="8.26367" rx="4.13184" fill="#F4F4F4"/>
<rect x="47.0137" y="132.442" width="185.963" height="33.0879" rx="6.86048" fill="url(#paint2_linear_1668_10889)"/>
<rect x="47.3032" y="132.732" width="185.384" height="32.5088" rx="6.57091" stroke="black" stroke-opacity="0.08" stroke-width="0.579139"/>
<path d="M109.247 152.445L109.52 150.045L107.418 151.584L106.516 150.045L108.908 148.993L106.532 147.942L107.418 146.394L109.52 147.942L109.247 145.517H111.027L110.754 147.909L112.823 146.394L113.709 147.942L111.35 148.993L113.726 150.028L112.823 151.568L110.754 150.061L111.027 152.445H109.247Z" fill="#1550E5"/>
<path d="M119.432 152.445L119.705 150.045L117.602 151.584L116.7 150.045L119.093 148.993L116.717 147.942L117.602 146.394L119.705 147.942L119.432 145.517H121.212L120.938 147.909L123.008 146.394L123.894 147.942L121.534 148.993L123.91 150.028L123.008 151.568L120.938 150.061L121.212 152.445H119.432Z" fill="#1550E5"/>
<path d="M129.617 152.445L129.891 150.045L127.788 151.584L126.886 150.045L129.278 148.993L126.902 147.942L127.788 146.394L129.891 147.942L129.617 145.517H131.397L131.124 147.909L133.193 146.394L134.079 147.942L131.72 148.993L134.096 150.028L133.193 151.568L131.124 150.061L131.397 152.445H129.617Z" fill="#1550E5"/>
<path d="M139.802 152.445L140.075 150.045L137.973 151.584L137.07 150.045L139.463 148.993L137.087 147.942L137.973 146.394L140.075 147.942L139.802 145.517H141.582L141.309 147.909L143.378 146.394L144.264 147.942L141.905 148.993L144.28 150.028L143.378 151.568L141.309 150.061L141.582 152.445H139.802Z" fill="#1550E5"/>
<path d="M149.988 152.445L150.261 150.045L148.158 151.584L147.256 150.045L149.648 148.993L147.272 147.942L148.158 146.394L150.261 147.942L149.988 145.517H151.767L151.494 147.909L153.564 146.394L154.449 147.942L152.09 148.993L154.466 150.028L153.564 151.568L151.494 150.061L151.767 152.445H149.988Z" fill="#1550E5"/>
<path d="M160.172 152.445L160.445 150.045L158.343 151.584L157.44 150.045L159.833 148.993L157.457 147.942L158.343 146.394L160.445 147.942L160.172 145.517H161.952L161.679 147.909L163.748 146.394L164.634 147.942L162.275 148.993L164.65 150.028L163.748 151.568L161.679 150.061L161.952 152.445H160.172Z" fill="#1550E5"/>
</g>
<g opacity="0.4">
<path d="M494.839 237.985C493.529 237.985 492.227 237.522 491.185 236.567C475.218 222.011 454.73 213.995 433.488 213.995C412.247 213.995 391.759 222.011 375.792 236.574C373.571 238.593 370.141 238.426 368.123 236.22C366.104 234.006 366.264 230.569 368.477 228.551C386.456 212.164 409.542 203.143 433.488 203.143C457.435 203.143 480.521 212.164 498.499 228.551C500.713 230.569 500.872 233.999 498.854 236.22C497.783 237.392 496.315 237.985 494.839 237.985Z" fill="url(#paint3_linear_1668_10889)"/>
<path d="M504.027 273.442C502.283 273.442 500.561 272.603 499.52 271.04C484.457 248.613 459.772 235.221 433.488 235.221C407.205 235.221 382.52 248.613 367.457 271.04C365.786 273.536 362.407 274.202 359.926 272.523C357.437 270.852 356.772 267.481 358.443 264.992C375.524 239.562 403.58 224.376 433.488 224.376C463.397 224.376 491.453 239.562 508.534 264.999C510.205 267.488 509.547 270.859 507.051 272.531C506.125 273.146 505.076 273.442 504.027 273.442Z" fill="url(#paint4_linear_1668_10889)"/>
<path d="M416.349 376.775C414.953 376.775 413.557 376.24 412.493 375.169C411.307 373.976 383.504 345.594 383.504 318.268C383.504 289.908 405.924 266.837 433.488 266.837C461.053 266.837 483.473 289.908 483.473 318.268C483.473 321.264 481.042 323.694 478.047 323.694C475.052 323.694 472.621 321.264 472.621 318.268C472.621 295.891 455.07 277.689 433.488 277.689C411.907 277.689 394.356 295.891 394.356 318.268C394.356 341.181 419.945 367.269 420.206 367.529C422.318 369.656 422.304 373.093 420.169 375.205C419.113 376.255 417.731 376.775 416.349 376.775Z" fill="url(#paint5_linear_1668_10889)"/>
<path d="M450.627 376.775C437.576 376.775 407.321 351.946 404.39 324.295C403.356 314.521 406.467 304.522 412.703 297.548C418.129 291.486 425.458 288.121 433.337 288.078H433.488C441.172 288.078 448.435 291.095 453.963 296.586C459.736 302.323 462.912 310.028 462.912 318.276V321.813C462.912 330.531 469.698 337.621 478.047 337.621C486.396 337.621 493.189 330.531 493.189 321.813V320.576C493.189 286.79 468.714 258.683 437.468 256.6C421.175 255.493 405.548 261.121 393.488 272.393C380.972 284.099 373.795 300.826 373.795 318.276C373.795 332.629 378.657 346.614 387.483 357.654C389.35 359.998 388.973 363.406 386.629 365.279C384.292 367.153 380.878 366.77 378.997 364.426C368.644 351.468 362.936 335.075 362.936 318.268C362.936 297.823 371.371 278.21 386.065 264.464C400.339 251.109 418.845 244.467 438.177 245.762C475.102 248.229 504.034 281.089 504.034 320.569V321.806C504.034 336.507 492.372 348.466 478.04 348.466C463.708 348.466 452.053 336.507 452.053 321.806V318.268C452.053 312.929 450.013 307.966 446.308 304.276C442.836 300.818 438.285 298.923 433.488 298.923C433.452 298.923 433.423 298.923 433.387 298.923C427.274 298.952 423.157 302.128 420.784 304.783C416.552 309.507 414.454 316.38 415.17 323.152C417.565 345.71 443.487 365.931 450.62 365.931C453.615 365.931 456.046 368.361 456.046 371.357C456.046 374.352 453.623 376.775 450.627 376.775Z" fill="url(#paint6_linear_1668_10889)"/>
<path d="M470.762 366.162C451.344 366.162 427.636 342.432 427.636 314.731C427.636 311.735 430.066 309.305 433.062 309.305C436.057 309.305 438.488 311.735 438.488 314.731C438.488 336.203 456.538 355.31 470.762 355.31C473.757 355.31 476.188 357.741 476.188 360.736C476.188 363.731 473.757 366.162 470.762 366.162Z" fill="url(#paint7_linear_1668_10889)"/>
</g>
<defs>
<filter id="filter0_d_1668_10889" x="7.48224" y="26.285" width="261.385" height="173.867" filterUnits="userSpaceOnUse" color-interpolation-filters="sRGB">
<feFlood flood-opacity="0" result="BackgroundImageFix"/>
<feColorMatrix in="SourceAlpha" type="matrix" values="0 0 0 0 0 0 0 0 0 0 0 0 0 0 0 0 0 0 127 0" result="hardAlpha"/>
<feOffset dy="2.62592"/>
<feGaussianBlur stdDeviation="6.24304"/>
<feComposite in2="hardAlpha" operator="out"/>
<feColorMatrix type="matrix" values="0 0 0 0 0 0 0 0 0 0 0 0 0 0 0 0 0 0 0.05 0"/>
<feBlend mode="normal" in2="BackgroundImageFix" result="effect1_dropShadow_1668_10889"/>
<feBlend mode="normal" in="SourceGraphic" in2="effect1_dropShadow_1668_10889" result="shape"/>
</filter>
<linearGradient id="paint0_linear_1668_10889" x1="137.876" y1="48.1787" x2="137.876" y2="178.179" gradientUnits="userSpaceOnUse">
<stop stop-color="white"/>
<stop offset="1" stop-color="#F9F9F9"/>
</linearGradient>
<linearGradient id="paint1_linear_1668_10889" x1="139.995" y1="72.0908" x2="139.995" y2="105.179" gradientUnits="userSpaceOnUse">
<stop stop-color="white"/>
<stop offset="1" stop-color="#F9F9F9"/>
</linearGradient>
<linearGradient id="paint2_linear_1668_10889" x1="139.995" y1="132.442" x2="139.995" y2="165.53" gradientUnits="userSpaceOnUse">
<stop stop-color="white"/>
<stop offset="1" stop-color="#F9F9F9"/>
</linearGradient>
<linearGradient id="paint3_linear_1668_10889" x1="433.489" y1="203.143" x2="433.489" y2="376.775" gradientUnits="userSpaceOnUse">
<stop stop-color="#1550E5"/>
<stop offset="1" stop-color="#1550E5" stop-opacity="0"/>
</linearGradient>
<linearGradient id="paint4_linear_1668_10889" x1="433.489" y1="203.143" x2="433.489" y2="376.775" gradientUnits="userSpaceOnUse">
<stop stop-color="#1550E5"/>
<stop offset="1" stop-color="#1550E5" stop-opacity="0"/>
</linearGradient>
<linearGradient id="paint5_linear_1668_10889" x1="433.489" y1="203.143" x2="433.489" y2="376.775" gradientUnits="userSpaceOnUse">
<stop stop-color="#1550E5"/>
<stop offset="1" stop-color="#1550E5" stop-opacity="0"/>
</linearGradient>
<linearGradient id="paint6_linear_1668_10889" x1="433.489" y1="203.143" x2="433.489" y2="376.775" gradientUnits="userSpaceOnUse">
<stop stop-color="#1550E5"/>
<stop offset="1" stop-color="#1550E5" stop-opacity="0"/>
</linearGradient>
<linearGradient id="paint7_linear_1668_10889" x1="433.489" y1="203.143" x2="433.489" y2="376.775" gradientUnits="userSpaceOnUse">
<stop stop-color="#1550E5"/>
<stop offset="1" stop-color="#1550E5" stop-opacity="0"/>
</linearGradient>
</defs>
</svg>
