<svg width="815" height="541" viewBox="0 0 815 541" fill="none" xmlns="http://www.w3.org/2000/svg">
<mask id="mask0_1576_2170" style="mask-type:alpha" maskUnits="userSpaceOnUse" x="-126" y="-47" width="941" height="390">
<rect opacity="0.5" width="939.267" height="389.228" transform="matrix(-1 0 0 1 814.153 -46.8535)" fill="url(#paint0_radial_1576_2170)"/>
</mask>
<g mask="url(#mask0_1576_2170)">
<g clip-path="url(#clip0_1576_2170)">
<g clip-path="url(#clip1_1576_2170)">
<mask id="mask1_1576_2170" style="mask-type:luminance" maskUnits="userSpaceOnUse" x="-178" y="-47" width="1045" height="588">
<path d="M866.333 -46.8584H-177.296V540.183H866.333V-46.8584Z" fill="white"/>
</mask>
<g mask="url(#mask1_1576_2170)">
<path d="M812.524 41.2C811.323 41.2 810.349 40.2266 810.349 39.0258C810.349 37.825 811.323 36.8516 812.524 36.8516C813.724 36.8516 814.698 37.825 814.698 39.0258C814.698 40.2266 813.724 41.2 812.524 41.2Z" fill="#2A72EE" fill-opacity="0.39"/>
<path d="M708.161 41.2C706.96 41.2 705.987 40.2266 705.987 39.0258C705.987 37.825 706.96 36.8516 708.161 36.8516C709.362 36.8516 710.335 37.825 710.335 39.0258C710.335 40.2266 709.362 41.2 708.161 41.2Z" fill="#2A72EE" fill-opacity="0.39"/>
<path d="M603.797 41.2C602.596 41.2 601.623 40.2266 601.623 39.0258C601.623 37.825 602.596 36.8516 603.797 36.8516C604.998 36.8516 605.971 37.825 605.971 39.0258C605.971 40.2266 604.998 41.2 603.797 41.2Z" fill="#2A72EE" fill-opacity="0.39"/>
<path d="M499.435 41.2C498.234 41.2 497.26 40.2266 497.26 39.0258C497.26 37.825 498.234 36.8516 499.435 36.8516C500.635 36.8516 501.609 37.825 501.609 39.0258C501.609 40.2266 500.635 41.2 499.435 41.2Z" fill="#2A72EE" fill-opacity="0.39"/>
<path d="M395.072 41.2C393.871 41.2 392.898 40.2266 392.898 39.0258C392.898 37.825 393.871 36.8516 395.072 36.8516C396.273 36.8516 397.246 37.825 397.246 39.0258C397.246 40.2266 396.273 41.2 395.072 41.2Z" fill="#2A72EE" fill-opacity="0.39"/>
<path d="M290.709 41.2C289.508 41.2 288.534 40.2266 288.534 39.0258C288.534 37.825 289.508 36.8516 290.709 36.8516C291.909 36.8516 292.883 37.825 292.883 39.0258C292.883 40.2266 291.909 41.2 290.709 41.2Z" fill="#2A72EE" fill-opacity="0.39"/>
<path d="M186.346 41.2C185.145 41.2 184.172 40.2266 184.172 39.0258C184.172 37.825 185.145 36.8516 186.346 36.8516C187.547 36.8516 188.52 37.825 188.52 39.0258C188.52 40.2266 187.547 41.2 186.346 41.2Z" fill="#2A72EE" fill-opacity="0.39"/>
<path d="M81.983 41.2C80.7822 41.2 79.8088 40.2266 79.8088 39.0258C79.8088 37.825 80.7822 36.8516 81.983 36.8516C83.1838 36.8516 84.1572 37.825 84.1572 39.0258C84.1572 40.2266 83.1838 41.2 81.983 41.2Z" fill="#2A72EE" fill-opacity="0.39"/>
<path d="M812.524 145.562C811.323 145.562 810.349 144.589 810.349 143.388C810.349 142.187 811.323 141.214 812.524 141.214C813.724 141.214 814.698 142.187 814.698 143.388C814.698 144.589 813.724 145.562 812.524 145.562Z" fill="#2A72EE" fill-opacity="0.39"/>
<path d="M708.161 145.562C706.96 145.562 705.987 144.589 705.987 143.388C705.987 142.187 706.96 141.214 708.161 141.214C709.362 141.214 710.335 142.187 710.335 143.388C710.335 144.589 709.362 145.562 708.161 145.562Z" fill="#2A72EE" fill-opacity="0.39"/>
<path d="M603.797 145.562C602.596 145.562 601.623 144.589 601.623 143.388C601.623 142.187 602.596 141.214 603.797 141.214C604.998 141.214 605.971 142.187 605.971 143.388C605.971 144.589 604.998 145.562 603.797 145.562Z" fill="#2A72EE" fill-opacity="0.39"/>
<path d="M499.434 145.562C498.233 145.562 497.26 144.589 497.26 143.388C497.26 142.187 498.233 141.214 499.434 141.214C500.635 141.214 501.608 142.187 501.608 143.388C501.608 144.589 500.635 145.562 499.434 145.562Z" fill="#2A72EE" fill-opacity="0.39"/>
<path d="M395.072 145.562C393.871 145.562 392.898 144.589 392.898 143.388C392.898 142.187 393.871 141.214 395.072 141.214C396.273 141.214 397.246 142.187 397.246 143.388C397.246 144.589 396.273 145.562 395.072 145.562Z" fill="#2A72EE" fill-opacity="0.39"/>
<path d="M290.709 145.562C289.508 145.562 288.534 144.589 288.534 143.388C288.534 142.187 289.508 141.214 290.709 141.214C291.909 141.214 292.883 142.187 292.883 143.388C292.883 144.589 291.909 145.562 290.709 145.562Z" fill="#2A72EE" fill-opacity="0.39"/>
<path d="M186.346 145.562C185.145 145.562 184.172 144.589 184.172 143.388C184.172 142.187 185.145 141.214 186.346 141.214C187.547 141.214 188.521 142.187 188.521 143.388C188.521 144.589 187.547 145.562 186.346 145.562Z" fill="#2A72EE" fill-opacity="0.39"/>
<path d="M81.983 145.562C80.7822 145.562 79.8088 144.589 79.8088 143.388C79.8088 142.187 80.7822 141.214 81.983 141.214C83.1838 141.214 84.1572 142.187 84.1572 143.388C84.1572 144.589 83.1838 145.562 81.983 145.562Z" fill="#2A72EE" fill-opacity="0.39"/>
<path d="M812.524 249.926C811.323 249.926 810.349 248.952 810.349 247.751C810.349 246.551 811.323 245.577 812.524 245.577C813.724 245.577 814.698 246.551 814.698 247.751C814.698 248.952 813.724 249.926 812.524 249.926Z" fill="#2A72EE" fill-opacity="0.39"/>
<path d="M708.161 249.926C706.96 249.926 705.987 248.952 705.987 247.751C705.987 246.551 706.96 245.577 708.161 245.577C709.362 245.577 710.335 246.551 710.335 247.751C710.335 248.952 709.362 249.926 708.161 249.926Z" fill="#2A72EE" fill-opacity="0.39"/>
<path d="M603.797 249.926C602.596 249.926 601.623 248.952 601.623 247.751C601.623 246.551 602.596 245.577 603.797 245.577C604.998 245.577 605.971 246.551 605.971 247.751C605.971 248.952 604.998 249.926 603.797 249.926Z" fill="#2A72EE" fill-opacity="0.39"/>
<path d="M499.434 249.926C498.233 249.926 497.26 248.952 497.26 247.751C497.26 246.551 498.233 245.577 499.434 245.577C500.635 245.577 501.608 246.551 501.608 247.751C501.608 248.952 500.635 249.926 499.434 249.926Z" fill="#2A72EE" fill-opacity="0.39"/>
<path d="M395.072 249.926C393.871 249.926 392.898 248.952 392.898 247.751C392.898 246.551 393.871 245.577 395.072 245.577C396.273 245.577 397.246 246.551 397.246 247.751C397.246 248.952 396.273 249.926 395.072 249.926Z" fill="#2A72EE" fill-opacity="0.39"/>
<path d="M290.709 249.926C289.508 249.926 288.534 248.952 288.534 247.751C288.534 246.551 289.508 245.577 290.709 245.577C291.909 245.577 292.883 246.551 292.883 247.751C292.883 248.952 291.909 249.926 290.709 249.926Z" fill="#2A72EE" fill-opacity="0.39"/>
<path d="M186.346 249.926C185.145 249.926 184.172 248.952 184.172 247.751C184.172 246.551 185.145 245.577 186.346 245.577C187.547 245.577 188.521 246.551 188.521 247.751C188.521 248.952 187.547 249.926 186.346 249.926Z" fill="#2A72EE" fill-opacity="0.39"/>
<path d="M81.983 249.926C80.7822 249.926 79.8088 248.952 79.8088 247.751C79.8088 246.551 80.7822 245.577 81.983 245.577C83.1838 245.577 84.1572 246.551 84.1572 247.751C84.1572 248.952 83.1838 249.926 81.983 249.926Z" fill="#2A72EE" fill-opacity="0.39"/>
<path d="M919.061 39.2979H-201.754" stroke="#2A72EE" stroke-opacity="0.39" stroke-width="0.543557"/>
<path d="M919.061 143.661H-201.754" stroke="#2A72EE" stroke-opacity="0.39" stroke-width="0.543557"/>
<path d="M919.061 248.023H-201.754" stroke="#2A72EE" stroke-opacity="0.39" stroke-width="0.543557"/>
<path d="M812.795 -88.71L812.795 559.21" stroke="#2A72EE" stroke-opacity="0.39" stroke-width="0.543557"/>
<path d="M708.432 -88.71V559.21" stroke="#2A72EE" stroke-opacity="0.39" stroke-width="0.543557"/>
<path d="M604.069 -88.71V559.21" stroke="#2A72EE" stroke-opacity="0.39" stroke-width="0.543557"/>
<path d="M499.707 -88.71V559.21" stroke="#2A72EE" stroke-opacity="0.39" stroke-width="0.543557"/>
<path d="M395.343 -88.71V559.21" stroke="#2A72EE" stroke-opacity="0.39" stroke-width="0.543557"/>
<path d="M290.98 -88.71V559.21" stroke="#2A72EE" stroke-opacity="0.39" stroke-width="0.543557"/>
<path d="M186.618 -88.71V559.21" stroke="#2A72EE" stroke-opacity="0.39" stroke-width="0.543557"/>
<path d="M82.2549 -88.71V559.21" stroke="#2A72EE" stroke-opacity="0.39" stroke-width="0.543557"/>
</g>
</g>
</g>
</g>
<defs>
<radialGradient id="paint0_radial_1576_2170" cx="0" cy="0" r="1" gradientUnits="userSpaceOnUse" gradientTransform="translate(443.834 185.394) scale(433.131 158.682)">
<stop/>
<stop offset="1" stop-opacity="0"/>
</radialGradient>
<clipPath id="clip0_1576_2170">
<rect width="939.267" height="587.042" fill="white" transform="matrix(-1 0 0 1 814.153 -46.8535)"/>
</clipPath>
<clipPath id="clip1_1576_2170">
<rect width="1043.63" height="587.042" fill="white" transform="matrix(-1 0 0 1 866.334 -46.8535)"/>
</clipPath>
</defs>
</svg>
