<svg width="247" height="242" viewBox="0 0 247 242" fill="none" xmlns="http://www.w3.org/2000/svg">
<path d="M69.79 0.0732422C31.6131 0.0732422 0.661621 30.475 0.661621 67.9739V214.261L40.2734 175.37C43.4505 172.249 47.4475 170.454 51.5642 169.951C41.7082 156.025 35.9176 139.113 35.9176 120.875C35.9176 73.2925 75.1877 34.7198 123.631 34.7198C172.073 34.7198 211.343 73.2925 211.343 120.875C211.343 168.457 172.073 207.03 123.631 207.03C104.807 207.03 87.3838 201.191 73.1038 191.276C72.5743 195.269 70.7466 199.144 67.6207 202.232L27.4794 241.66H177.488C215.665 241.66 246.617 211.258 246.617 173.759V0.0732422H69.79Z" fill="url(#paint0_linear_906_8088)"/>
<path d="M123.646 63.4467C91.3447 63.4467 65.176 89.1674 65.176 120.878C65.176 152.588 91.3618 178.309 123.646 178.309C155.929 178.309 182.115 152.588 182.115 120.878C182.115 109.452 178.699 98.8147 172.84 89.8553C168.672 95.7611 161.737 99.6369 153.88 99.6369C141.137 99.6369 130.82 89.503 130.82 76.9866C130.82 72.3558 132.238 68.0439 134.663 64.4702C131.093 63.799 127.403 63.4299 123.629 63.4299L123.646 63.4467Z" fill="url(#paint1_linear_906_8088)"/>
<defs>
<linearGradient id="paint0_linear_906_8088" x1="123.639" y1="0.0732422" x2="61.1906" y2="245.629" gradientUnits="userSpaceOnUse">
<stop stop-color="white"/>
<stop offset="1" stop-color="white"/>
</linearGradient>
<linearGradient id="paint1_linear_906_8088" x1="123.639" y1="0.0732422" x2="61.1906" y2="245.629" gradientUnits="userSpaceOnUse">
<stop stop-color="white"/>
<stop offset="1" stop-color="white"/>
</linearGradient>
</defs>
</svg>
