<svg width="709" height="162" viewBox="0 0 709 162" fill="none" xmlns="http://www.w3.org/2000/svg">
<path d="M708.395 77.7174C708.395 86.0016 701.679 92.7174 693.395 92.7174H524.875C519.466 92.7174 514.477 95.629 511.816 100.338L481.626 153.762C478.965 158.471 473.976 161.383 468.567 161.383L15 161.382C6.71571 161.382 0 154.667 0 146.382V14.9995C0 6.71526 6.71573 -0.000488281 15 -0.000488281H693.395C701.679 -0.000488281 708.395 6.71524 708.395 14.9995V77.7174Z" fill="white"/>
<path d="M708.61 146.383V116.354C708.61 108.069 701.894 101.354 693.61 101.354H533.847C528.477 101.354 523.517 104.224 520.841 108.881L493.257 156.888C492.108 158.888 493.551 161.383 495.858 161.383H693.61C701.894 161.383 708.61 154.667 708.61 146.383Z" fill="#00D3D0"/>
</svg>
