<svg width="32" height="41" viewBox="0 0 32 41" fill="none" xmlns="http://www.w3.org/2000/svg">
<path d="M16.3468 1.9949C16.5069 3.22089 15.7815 9.87181 15.6434 11.0663C15.4508 12.7322 15.3892 14.6866 14.5986 16.2171C14.1643 17.0576 13.6448 17.9877 12.9687 18.6579C10.1882 21.4136 7.04601 24.0883 3.61038 26.0051C3.02602 26.3311 2.32606 26.5763 1.6485 26.5181C0.427918 26.4132 2.9091 26.6225 3.03654 26.6257C5.93281 26.6988 8.78309 25.6784 11.682 26.0136C15.1481 26.4144 15.4831 28.4678 16.901 31.2678C17.9037 33.2479 19.0438 35.0607 19.8808 37.1483C19.9457 37.3101 20.3666 38.1874 20.0725 38.3464C19.3942 38.7131 19.6987 35.8668 19.7222 35.6634C20.0622 32.7231 20.2357 29.8295 22.1128 27.4444C23.7 25.4277 26.011 24.6096 28.5238 24.4467C29.7921 24.3645 31.1445 24.7491 29.3806 23.436C28.03 22.4306 27.1181 21.0583 26.0502 19.7875C24.5081 17.9523 21.8223 17.0508 20.9814 14.816C20.0611 12.3701 18.6528 12.9216 18.8182 10.3359C18.8727 9.48393 17.9406 6.92217 18.6637 1.84038" stroke="#FF7300" stroke-width="3.54066" stroke-linecap="round"/>
</svg>
