<svg width="26" height="29" viewBox="0 0 26 29" fill="none" xmlns="http://www.w3.org/2000/svg">
<path d="M10.5663 3.23201C9.67281 7.10026 8.64631 15.984 3.34775 16.9474C2.76943 17.0525 0.951316 17.3179 2.63901 17.5117C5.06355 17.7902 7.4632 17.8792 9.89699 17.8792C11.0929 17.8792 11.6639 18.2947 12.3513 19.1786C12.8516 19.8217 13.1418 21.1913 13.4013 22.0004C13.6727 22.8466 14.0118 24.0829 14.11 24.9666C14.1854 25.6448 14.8742 26.1645 15.0419 26.7515C15.1098 26.9892 14.6661 25.1667 14.635 24.7828C14.5418 23.6328 14.5825 22.4708 14.5825 21.3179C14.5825 18.0423 15.8983 16.3419 18.7431 14.5718C20.0446 13.7619 21.471 13.3477 22.8511 12.7343C23.1052 12.6214 23.743 12.723 23.0217 12.4456C22.4251 12.2161 21.8235 12.2093 21.1974 12.2093C20.1244 12.2093 18.9584 11.6199 17.9031 11.3825C16.7387 11.1205 15.5225 10.8131 14.6875 9.97812C13.7142 9.00484 13.6493 7.80781 13.2175 6.46069C12.7634 5.04375 12.1926 3.51207 11.9838 2.05078" stroke="#FF7300" stroke-width="3.54066" stroke-linecap="round"/>
</svg>
