<?xml version="1.0" encoding="UTF-8"?> <svg xmlns="http://www.w3.org/2000/svg" width="111" height="120" viewBox="0 0 111 120" fill="none"><path d="M110.66 4C110.66 1.79086 108.869 0 106.66 0H4C1.79086 0 0 1.79086 0 4V106.66C0 108.869 1.79086 110.66 4 110.66H40.2499C41.0066 110.66 41.7477 110.875 42.3873 111.279L53.1927 118.11C54.4981 118.935 56.162 118.935 57.4674 118.11L68.2729 111.279C68.9125 110.875 69.6536 110.66 70.4102 110.66H106.66C108.869 110.66 110.66 108.869 110.66 106.66V4Z" fill="white"></path><path d="M110.66 4C110.66 1.79086 108.869 0 106.66 0H4C1.79086 0 0 1.79086 0 4V106.66C0 108.869 1.79086 110.66 4 110.66H40.2499C41.0066 110.66 41.7477 110.875 42.3873 111.279L53.1927 118.11C54.4981 118.935 56.162 118.935 57.4674 118.11L68.2729 111.279C68.9125 110.875 69.6536 110.66 70.4102 110.66H106.66C108.869 110.66 110.66 108.869 110.66 106.66V4Z" fill="white"></path></svg> 