<svg width="336" height="255" viewBox="0 0 336 255" fill="none" xmlns="http://www.w3.org/2000/svg">
<path d="M473.781 29.2192C473.781 13.7709 461.269 1.24144 445.821 1.21943L268.094 0.966145C262.157 0.957684 256.371 2.83642 251.572 6.33103L90.6068 123.539C85.8185 127.026 80.048 128.904 74.1249 128.904H-509.379C-524.843 128.904 -537.379 141.44 -537.379 156.904V227.129C-537.379 242.593 -524.843 255.129 -509.379 255.129H445.782C461.246 255.129 473.782 242.593 473.782 227.129L473.781 29.2192Z" fill="white"/>
<path d="M473.781 29.2192C473.781 13.7709 461.269 1.24144 445.821 1.21943L268.094 0.966145C262.157 0.957684 256.371 2.83642 251.572 6.33103L90.6068 123.539C85.8185 127.026 80.048 128.904 74.1249 128.904H-509.379C-524.843 128.904 -537.379 141.44 -537.379 156.904V227.129C-537.379 242.593 -524.843 255.129 -509.379 255.129H445.782C461.246 255.129 473.782 242.593 473.782 227.129L473.781 29.2192Z" fill="url(#paint0_linear_1520_8013)"/>
<defs>
<linearGradient id="paint0_linear_1520_8013" x1="15.6251" y1="8.2726" x2="15.6251" y2="255.129" gradientUnits="userSpaceOnUse">
<stop stop-color="#0059F1"/>
<stop offset="1" stop-color="#548BEB"/>
</linearGradient>
</defs>
</svg>
