<svg width="968" height="215" viewBox="0 0 968 215" fill="none" xmlns="http://www.w3.org/2000/svg">
<path d="M1011.64 28.7259C1011.64 13.2899 999.149 0.765542 983.714 0.726062L810.694 0.283537C801.951 0.261174 793.699 4.32424 788.386 11.2678L629.505 218.899C624.207 225.823 615.986 229.884 607.268 229.884H28.4819C13.018 229.884 0.481934 242.42 0.481934 257.884V428.422C0.481934 443.886 13.0179 456.422 28.4819 456.422H983.643C999.107 456.422 1011.64 443.886 1011.64 428.422L1011.64 28.7259Z" fill="white"/>
<path d="M1011.64 28.7259C1011.64 13.2899 999.149 0.765542 983.714 0.726062L810.694 0.283537C801.951 0.261174 793.699 4.32424 788.386 11.2678L629.505 218.899C624.207 225.823 615.986 229.884 607.268 229.884H28.4819C13.018 229.884 0.481934 242.42 0.481934 257.884V428.422C0.481934 443.886 13.0179 456.422 28.4819 456.422H983.643C999.107 456.422 1011.64 443.886 1011.64 428.422L1011.64 28.7259Z" fill="url(#paint0_linear_906_7676)"/>
<defs>
<linearGradient id="paint0_linear_906_7676" x1="553.486" y1="13.3845" x2="553.486" y2="456.423" gradientUnits="userSpaceOnUse">
<stop stop-color="#0059F1"/>
<stop offset="1" stop-color="#548BEB"/>
</linearGradient>
</defs>
</svg>
