<svg width="991" height="217" viewBox="0 0 991 217" fill="none" xmlns="http://www.w3.org/2000/svg">
<path d="M217.682 108.385C217.682 168.247 169.157 216.775 109.296 216.775C49.4349 216.775 0.906221 168.247 0.906231 108.385C0.906234 88.8961 6.05 70.6057 15.0572 54.8034C33.7096 22.0725 68.9242 1.18926e-05 109.296 1.89515e-05C149.668 2.60104e-05 184.883 22.0725 203.531 54.8035C212.538 70.6057 217.682 88.8961 217.682 108.385Z" fill="#3F84FA"/>
<g clip-path="url(#clip0_3381_31396)">
<g clip-path="url(#clip1_3381_31396)">
<path d="M805.323 54.2071L805.323 145.496C805.323 173.801 788.517 198.242 764.196 209.669C754.799 214.086 744.278 216.557 733.167 216.557C722.057 216.557 711.6 214.1 702.226 209.71C677.855 198.301 661.012 173.837 661.012 145.496L661.012 54.207L702.226 54.207L702.226 145.542C702.226 162.392 716.099 176.055 733.213 176.055C750.328 176.055 764.196 162.392 764.196 145.542L764.197 54.207L805.323 54.2071Z" fill="#3F84FA"/>
</g>
<g clip-path="url(#clip2_3381_31396)">
<path d="M908.849 55.4599C894.046 55.4599 880.168 59.4082 868.215 66.3065L868.215 0.734382L827.672 0.734375L827.672 136.328C827.672 166.244 843.974 192.364 868.215 206.355C880.168 213.253 894.046 217.201 908.849 217.201C953.678 217.201 990.022 180.993 990.022 136.328C990.022 91.6635 953.678 55.4599 908.849 55.4599ZM908.849 176.851C886.405 176.851 868.215 158.749 868.215 136.419C868.215 114.089 886.405 95.9823 908.849 95.9823C931.293 95.9823 949.479 114.089 949.479 136.419C949.479 158.749 931.289 176.851 908.849 176.851Z" fill="#3F84FA"/>
</g>
<g clip-path="url(#clip3_3381_31396)">
<path d="M636.409 136.328L636.409 217.202L595.82 217.201L595.82 136.419C595.82 114.089 577.65 95.9823 555.231 95.9823C532.813 95.9823 514.647 114.089 514.647 136.419L514.647 217.201L474.059 217.201L474.059 0.734375L514.647 0.734382L514.647 66.2794C526.587 59.3992 540.449 55.4599 555.231 55.4599C570.014 55.4599 583.881 59.3992 595.82 66.2794C620.085 80.2612 636.409 106.395 636.409 136.328Z" fill="#3F84FA"/>
</g>
<path d="M434.155 217.182L434.155 217.187L232.119 217.187L232.119 217.182L333.135 108.953L434.155 217.182Z" fill="#3F84FA"/>
<path d="M333.136 108.671L232.118 216.905L232.118 0.4375L283.196 55.1642L333.136 108.671Z" fill="#3F84FA"/>
<path d="M340.353 115.523L232.119 217.187L334.155 108.953L340.353 115.523Z" fill="#3F84FA"/>
<path d="M434.154 0.437535L383.077 55.163L333.134 108.669L232.118 216.905L232.118 0.4375L434.154 0.437535Z" fill="#3F84FA"/>
</g>
<defs>
<clipPath id="clip0_3381_31396">
<rect width="758.714" height="216.775" fill="white" transform="translate(231.526)"/>
</clipPath>
<clipPath id="clip1_3381_31396">
<rect width="144.968" height="162.581" fill="white" transform="translate(661.012 54.207)"/>
</clipPath>
<clipPath id="clip2_3381_31396">
<rect width="162.35" height="216.467" fill="white" transform="translate(827.672 0.734375)"/>
</clipPath>
<clipPath id="clip3_3381_31396">
<rect width="162.581" height="216.775" fill="white" transform="translate(474.059)"/>
</clipPath>
</defs>
</svg>
