<svg width="28" height="30" viewBox="0 0 28 30" fill="none" xmlns="http://www.w3.org/2000/svg">
<g clip-path="url(#clip0_1669_13135)">
<path d="M28.0007 22.7312C28.0007 26.4265 25.0057 29.4215 21.3104 29.4215C17.6151 29.4215 14.6201 26.4265 14.6201 22.7312C14.6201 19.0359 17.6151 16.0409 21.3104 16.0409C25.0057 16.0409 28.0007 19.0359 28.0007 22.7312Z" fill="#1550E5"/>
<path d="M21.712 14.6274H20.8606V1.42994H7.55664L0.851452 7.7094V26.5478H14.2618C14.347 26.7947 14.1682 27.3992 13.9425 27.3992H0.319295L0 27.0799V7.49654L7.34377 0.578491H21.3927L21.712 0.897786V14.6274Z" fill="#1550E5"/>
<path d="M14.9325 4.37805C14.9878 4.46958 16.5673 4.92937 16.3906 5.78933C16.1543 6.94518 15.1964 5.40405 15.1198 5.36574C14.3343 4.96981 13.17 5.39554 13.4424 6.38535C13.6936 7.29428 18.4341 8.72684 15.6456 10.8044C14.8878 11.3685 14.7281 10.7874 14.9005 12.5009H14.0512C14.2513 10.7278 13.9959 11.3472 13.187 10.7043C12.2589 9.96784 12.5697 9.00357 13.204 9.41226C13.3019 9.47612 13.3594 9.8018 13.568 9.94868C14.3513 10.5043 15.752 10.1339 15.5157 9.23984C15.1943 8.02865 12.2887 7.98395 12.5654 5.81062C12.7208 4.58027 13.9043 4.56324 14.0193 4.37592C14.1704 4.12687 13.8639 3.02424 14.3748 2.91781C15.1219 2.76242 14.7941 4.14177 14.9367 4.37592L14.9325 4.37805Z" fill="#1550E5"/>
<path d="M5.10938 15.6918V14.8403H16.4975L16.8147 15.1618L16.4975 15.6918H5.10938Z" fill="#1550E5"/>
<path d="M8.51534 3.13281V8.34796L8.19604 8.66725H2.34231C2.19756 8.26281 2.47854 7.8158 2.87447 7.8158H7.66389L7.69156 3.26692L8.51534 3.13281Z" fill="#1550E5"/>
<path d="M5.109 18.459H13.5171L13.8343 18.7804L13.5171 19.3104H5.21543L4.90039 18.9911L5.109 18.459Z" fill="#1550E5"/>
<path d="M5.109 22.0776H12.6656L12.9828 22.3991L12.6656 22.9291H5.21543L4.90039 22.6098L5.109 22.0776Z" fill="#1550E5"/>
<path d="M24.0521 20.8026C24.0138 20.7685 23.2922 20.7153 23.1836 20.9431L20.5101 23.9785C19.8545 24.0956 19.2393 21.8882 18.1984 22.2905C17.6173 22.365 19.3925 24.3404 19.5756 24.532C19.8353 24.8002 20.1227 25.2089 20.5101 25.2578C20.7038 25.2238 22.8835 22.778 23.1943 22.3927C23.3773 22.1649 24.3203 21.0431 24.05 20.8026H24.0521Z" fill="white"/>
<path d="M24.0519 20.8026C24.3223 21.0431 23.3793 22.1649 23.1962 22.3927C22.8854 22.7758 20.7057 25.2238 20.512 25.2578C20.1246 25.211 19.8372 24.8002 19.5776 24.532C19.3945 24.3404 17.6192 22.365 18.2003 22.2905C19.2391 21.8882 19.8564 24.0956 20.512 23.9785L23.1856 20.9431C23.2941 20.7153 24.0158 20.7685 24.0541 20.8026H24.0519Z" fill="white"/>
</g>
<defs>
<clipPath id="clip0_1669_13135">
<rect width="28" height="28.8429" fill="white" transform="translate(0 0.578491)"/>
</clipPath>
</defs>
</svg>
