<svg width="375" height="238" viewBox="0 0 375 238" fill="none" xmlns="http://www.w3.org/2000/svg">
<path d="M251.21 153.816L436.297 4.6004C439.988 1.62458 444.592 0.0109906 449.333 0.0311225L598.162 0.663058C609.522 0.711292 618.705 9.9338 618.705 21.2937V217.372C618.705 228.766 609.468 238.003 598.074 238.003L370.762 238.003C365.224 238.003 359.974 235.537 356.438 231.275C352.902 227.013 347.652 224.547 342.114 224.547H251.21V153.816Z" fill="#E4EAEF"/>
<path d="M251.21 153.816L436.297 4.6004C439.988 1.62458 444.592 0.0109906 449.333 0.0311225L598.162 0.663058C609.522 0.711292 618.705 9.9338 618.705 21.2937V217.372C618.705 228.766 609.468 238.003 598.074 238.003L370.762 238.003C365.224 238.003 359.974 235.537 356.438 231.275C352.902 227.013 347.652 224.547 342.114 224.547H251.21V153.816Z" fill="url(#paint0_linear_2058_9758)"/>
<path d="M174.666 153.816C160.532 153.816 146.824 148.979 135.821 140.108L-32.263 4.6004C-35.9542 1.62459 -40.5578 0.0109906 -45.2991 0.0311225L-194.128 0.663058C-205.488 0.711292 -214.671 9.9338 -214.671 21.2937V217.372C-214.671 228.766 -205.434 238.003 -194.04 238.003L30.238 238.003C36.0661 238.003 41.6648 235.731 45.8452 231.67L46.6594 230.879C50.8398 226.818 56.4385 224.547 62.2667 224.547H152.825H251.21V153.816H174.666Z" fill="#E4EAEF"/>
<path d="M174.666 153.816C160.532 153.816 146.824 148.979 135.821 140.108L-32.263 4.6004C-35.9542 1.62459 -40.5578 0.0109906 -45.2991 0.0311225L-194.128 0.663058C-205.488 0.711292 -214.671 9.9338 -214.671 21.2937V217.372C-214.671 228.766 -205.434 238.003 -194.04 238.003L30.238 238.003C36.0661 238.003 41.6648 235.731 45.8452 231.67L46.6594 230.879C50.8398 226.818 56.4385 224.547 62.2667 224.547H152.825H251.21V153.816H174.666Z" fill="url(#paint1_linear_2058_9758)"/>
<defs>
<linearGradient id="paint0_linear_2058_9758" x1="202.017" y1="0" x2="202.017" y2="238.003" gradientUnits="userSpaceOnUse">
<stop stop-color="#0059F1"/>
<stop offset="1" stop-color="#548BEB"/>
</linearGradient>
<linearGradient id="paint1_linear_2058_9758" x1="202.017" y1="0" x2="202.017" y2="238.003" gradientUnits="userSpaceOnUse">
<stop stop-color="#0059F1"/>
<stop offset="1" stop-color="#548BEB"/>
</linearGradient>
</defs>
</svg>
