<svg width="36" height="18" viewBox="0 0 36 18" fill="none" xmlns="http://www.w3.org/2000/svg">
<path d="M17.7628 9.14075C17.7628 13.981 13.8393 17.9049 8.99902 17.9049C4.15878 17.9049 0.234861 13.981 0.234862 9.14074C0.234862 7.56488 0.650775 6.08596 1.37908 4.80823C2.88727 2.16168 5.73464 0.376954 8.99902 0.376955C12.2634 0.376955 15.1108 2.16168 16.6186 4.80823C17.3469 6.08597 17.7628 7.56489 17.7628 9.14075Z" fill="#1550E5"/>
<path d="M35.2663 17.9387L35.2663 17.939L18.9302 17.939L18.9302 17.9386L27.0981 9.1875L35.2663 17.9387Z" fill="#1550E5"/>
<path d="M27.6817 9.7187L18.9302 17.939L27.1806 9.1875L27.6817 9.7187Z" fill="#353535"/>
<path d="M35.2661 0.412112L31.1361 4.83709L27.0978 9.16344L18.9299 17.9151L18.9299 0.412109L35.2661 0.412112Z" fill="#1550E5"/>
</svg>
