<svg width="671" height="169" viewBox="0 0 671 169" fill="none" xmlns="http://www.w3.org/2000/svg">
<g opacity="0.6" filter="url(#filter0_f_3381_30986)">
<path d="M155.368 84.2401C155.368 123.034 123.921 154.483 85.1277 154.483C46.3342 154.483 14.8847 123.034 14.8848 84.24C14.8848 71.6099 18.2182 59.7566 24.0554 49.5158C36.1432 28.3043 58.9644 14 85.1278 14C111.291 14 134.112 28.3043 146.197 49.5158C152.034 59.7566 155.368 71.6099 155.368 84.2401Z" fill="#00D3D0"/>
<g clip-path="url(#clip0_3381_30986)">
<g clip-path="url(#clip1_3381_30986)">
<path d="M536.194 49.1289L536.194 108.29C536.194 126.633 525.303 142.472 509.542 149.878C503.451 152.74 496.633 154.341 489.433 154.341C482.233 154.341 475.456 152.749 469.381 149.904C453.587 142.51 442.672 126.656 442.672 108.29L442.672 49.1289L469.381 49.1289L469.381 108.319C469.381 119.239 478.372 128.093 489.463 128.093C500.554 128.093 509.542 119.239 509.542 108.319L509.542 49.1289L536.194 49.1289Z" fill="#0033C9"/>
</g>
<g clip-path="url(#clip2_3381_30986)">
<path d="M603.285 49.9419C593.692 49.9419 584.698 52.5006 576.952 56.9711L576.952 14.4766L550.678 14.4766L550.678 102.349C550.678 121.736 561.242 138.664 576.952 147.731C584.698 152.201 593.692 154.76 603.285 154.76C632.337 154.76 655.89 131.295 655.89 102.349C655.89 73.4039 632.337 49.9419 603.285 49.9419ZM603.285 128.61C588.74 128.61 576.952 116.879 576.952 102.408C576.952 87.9367 588.741 76.2027 603.285 76.2027C617.83 76.2027 629.616 87.9367 629.616 102.408C629.616 116.879 617.827 128.61 603.285 128.61Z" fill="#0033C9"/>
</g>
<g clip-path="url(#clip3_3381_30986)">
<path d="M426.728 102.349L426.728 154.76L400.424 154.76L400.424 102.408C400.424 87.9367 388.649 76.2027 374.12 76.2027C359.592 76.2027 347.819 87.9367 347.819 102.408L347.819 154.76L321.516 154.76L321.516 14.4766L347.819 14.4766L347.819 56.9536C355.557 52.4948 364.54 49.9419 374.12 49.9419C383.7 49.9419 392.687 52.4948 400.424 56.9536C416.149 66.0146 426.728 82.9509 426.728 102.349Z" fill="#0033C9"/>
</g>
<path d="M295.656 154.744L295.656 154.747L164.725 154.747L164.725 154.744L230.189 84.6055L295.656 154.744Z" fill="#0033C9"/>
<path d="M230.19 84.4268L164.725 154.568L164.725 14.2852L197.826 49.7512L230.19 84.4268Z" fill="#00D3D0"/>
<path d="M234.866 88.863L164.725 154.747L230.85 84.6055L234.866 88.863Z" fill="#0049B2"/>
<path d="M295.656 14.2852L262.555 49.7505L230.189 84.4254L164.725 154.568L164.725 14.2852L295.656 14.2852Z" fill="#00D3D0"/>
</g>
</g>
<defs>
<filter id="filter0_f_3381_30986" x="0.884766" y="0" width="669.146" height="168.484" filterUnits="userSpaceOnUse" color-interpolation-filters="sRGB">
<feFlood flood-opacity="0" result="BackgroundImageFix"/>
<feBlend mode="normal" in="SourceGraphic" in2="BackgroundImageFix" result="shape"/>
<feGaussianBlur stdDeviation="7" result="effect1_foregroundBlur_3381_30986"/>
</filter>
<clipPath id="clip0_3381_30986">
<rect width="491.691" height="140.483" fill="white" transform="translate(164.341 14)"/>
</clipPath>
<clipPath id="clip1_3381_30986">
<rect width="93.948" height="105.362" fill="white" transform="translate(442.672 49.1289)"/>
</clipPath>
<clipPath id="clip2_3381_30986">
<rect width="105.212" height="140.283" fill="white" transform="translate(550.678 14.4766)"/>
</clipPath>
<clipPath id="clip3_3381_30986">
<rect width="105.362" height="140.483" fill="white" transform="translate(321.516 14)"/>
</clipPath>
</defs>
</svg>
