<svg width="43" height="22" viewBox="0 0 43 22" fill="none" xmlns="http://www.w3.org/2000/svg">
<path d="M21.5043 11.1074C21.5043 17.0456 16.6906 21.8597 10.7524 21.8597C4.81407 21.8597 -2.9182e-06 17.0456 -1.87992e-06 11.1074C-1.54188e-06 9.17402 0.510263 7.3596 1.40379 5.79201C3.25411 2.54507 6.74743 0.35547 10.7524 0.355471C14.7573 0.355471 18.2506 2.54508 20.1005 5.79201C20.994 7.3596 21.5043 9.17402 21.5043 11.1074Z" fill="white"/>
<path d="M42.9786 21.9005L42.9786 21.9009L22.9365 21.9009L22.9365 21.9005L32.9573 11.1641L42.9786 21.9005Z" fill="white"/>
<path d="M33.6734 11.8158L22.9365 21.9009L33.0586 11.1641L33.6734 11.8158Z" fill="#D7D7D7"/>
<path d="M42.9785 0.398441L37.9117 5.82725L32.9572 11.1351L22.9364 21.8721L22.9364 0.398438L42.9785 0.398441Z" fill="white"/>
</svg>
