<svg width="253" height="127" viewBox="0 0 253 127" fill="none" xmlns="http://www.w3.org/2000/svg">
<path d="M126.256 63.1266C126.256 97.9913 97.994 126.256 63.1292 126.256C28.2644 126.256 -1.71333e-05 97.9913 -1.10374e-05 63.1265C-9.05271e-06 51.7755 2.99586 41.1226 8.24191 31.919C19.1055 12.8556 39.6155 6.92659e-06 63.1292 1.10379e-05C86.6429 1.51491e-05 107.153 12.8556 118.014 31.919C123.26 41.1226 126.256 51.7755 126.256 63.1266Z" fill="#EEF2F5"/>
<path d="M252.336 126.493L252.336 126.495L134.665 126.495L134.665 126.493L193.499 63.457L252.336 126.493Z" fill="#EEF2F5"/>
<path d="M197.703 67.2834L134.665 126.495L194.093 63.457L197.703 67.2834Z" fill="#D7D7D7"/>
<path d="M252.335 0.25588L222.587 32.1295L193.498 63.2927L134.664 126.332L134.664 0.255859L252.335 0.25588Z" fill="#EEF2F5"/>
</svg>
